<?xml version="1.0" encoding="UTF-8" standalone="no"?>
<!-- Created with Inkscape (http://www.inkscape.org/) -->

<svg
   width="2157.0188"
   height="2650.6277"
   viewBox="0 0 570.71121 701.31191"
   version="1.1"
   id="svg1"
   inkscape:version="1.3.2 (091e20ef0f, 2023-11-25, custom)"
   sodipodi:docname="safe-docs-logo.svg"
   xmlns:inkscape="http://www.inkscape.org/namespaces/inkscape"
   xmlns:sodipodi="http://sodipodi.sourceforge.net/DTD/sodipodi-0.dtd"
   xmlns="http://www.w3.org/2000/svg"
   xmlns:svg="http://www.w3.org/2000/svg">
  <sodipodi:namedview
     id="namedview1"
     pagecolor="#2e2e2e"
     bordercolor="#ffffff"
     borderopacity="0.24705882"
     inkscape:showpageshadow="2"
     inkscape:pageopacity="0.0"
     inkscape:pagecheckerboard="0"
     inkscape:deskcolor="#5a5a5a"
     inkscape:document-units="mm"
     inkscape:export-bgcolor="#00000000"
     inkscape:zoom="0.16993021"
     inkscape:cx="-820.92527"
     inkscape:cy="1791.9122"
     inkscape:window-width="1902"
     inkscape:window-height="967"
     inkscape:window-x="9"
     inkscape:window-y="104"
     inkscape:window-maximized="1"
     inkscape:current-layer="layer1" />
  <defs
     id="defs1" />
  <g
     inkscape:label="Layer 1"
     inkscape:groupmode="layer"
     id="layer1"
     style="stroke-width:5;stroke-dasharray:none"
     transform="translate(-66.390619,-55.641941)">
    <path
       style="fill:none;stroke:#f9f9f9;stroke-width:4.99999;stroke-dasharray:none"
       d="m 71.702085,65.424764 c -1.055767,21.127291 1.422239,42.493016 0,63.595626 -0.338981,5.02967 -1.67523,9.95109 -2.147165,14.97003 -1.267188,13.47635 0,27.64967 0,41.17833 0,23.56187 0,47.12374 0,70.68561 0,16.59178 -1.484048,34.08426 0,50.61571 1.270897,14.15706 4.115403,28.42829 5.867114,42.44197 1.561727,12.49381 -2.613454,-0.53535 1.557012,15.08022 6.414871,24.01938 2.006111,-3.468 5.464175,26.30747 0.526608,4.33993 1.053214,8.67989 1.579822,13.01983 0,3.17785 -0.281612,6.3682 0,9.53354 1.373751,15.44117 4.127074,31.92693 7.445981,47.08081 0.499575,2.28102 1.710319,4.391 2.0336,6.70359 0.721247,5.15945 0,10.41924 0,15.62883 0,11.9371 0,23.8742 0,35.81127 0,35.78834 0,71.57667 0,107.36503 0,11.37307 0.243692,-6.23429 -1.557012,12.91358 -1.239903,13.18455 0,27.2498 0,40.51024 0,6.80453 -1.355053,15.96562 0,22.74089 0.975508,4.87754 2.241802,9.39133 3.142343,14.63926 1.002159,5.84012 -2.157437,28.3554 0,31.48986 0.750797,1.09083 14.764075,0 16.468085,0 9.96949,0 18.82629,-0.7928 28.44777,-1.95889 5.88431,-0.71316 10.76287,-4.35743 16.53289,-5.12644 12.92366,-1.72238 26.0227,-0.98435 38.87883,-3.11401 11.68787,-1.93614 25.56579,0 37.36828,0 12.45609,0 24.91219,0 37.36828,0 3.70711,0 8.84473,-0.90287 12.45609,0 1.12588,0.28146 1.97604,1.3294 3.11404,1.55699 3.49329,0.69866 7.40579,-0.69866 10.89908,0 1.60936,0.32189 3.04628,1.32493 4.67104,1.55702 5.96966,0.85281 12.78654,-1.28325 18.68413,0 1.65923,0.36103 3.02271,1.62478 4.67103,2.03274 5.55424,1.3747 51.0458,0.86053 58.03747,0 2.31677,-0.28514 4.49519,-1.35734 6.81619,-1.60546 15.31911,-1.63777 31.84671,0 47.25927,0 24.975,0 49.95,0 74.92502,0 8.6763,0 47.19532,-4.71234 54.29573,-1.95758 5.28254,2.04947 1.37665,1.557 6.93777,1.557 10.32791,0 -2.20197,-0.73398 4.67104,1.55702 4.91569,1.63856 34.37366,0 40.02214,0 0.49416,0 4.93691,0.42804 5.25246,0 3.41836,-4.63717 2.84641,-9.99461 3.53671,-15.20701 1.28177,-9.67824 2.97728,-20.49888 1.55702,-30.44068 -0.63923,-4.47455 -1.87058,-8.87317 -3.11402,-13.18787 -1.25124,-4.34176 -1.02954,-25.95559 0,-31.12235 0.81728,-4.10154 2.40533,-8.27455 3.11402,-12.56139 0.75364,-4.55861 -0.70057,-9.47369 0,-14.04172 2.30142,-15.00659 4.62378,-29.70329 6.31433,-44.87299 0.72332,-6.49042 0,-13.68999 0,-20.24116 0,-17.05488 -0.0847,-33.67338 -1.55702,-50.64963 -0.27551,-3.17683 0.36738,-7.87435 0,-10.89909 -1.24708,-10.26808 -2.37032,-21.07483 -4.77726,-31.19631 -0.50422,-2.12021 -1.6568,-4.07421 -1.98922,-6.22805 -0.80192,-5.19562 0.87718,-10.81876 0,-16.0024 -1.06413,-6.2884 -1.90111,-12.49121 -3.14272,-18.76435 -1.28135,-6.4738 0.86887,-13.79519 0,-20.3286 -0.30647,-2.30444 -1.54432,-4.40881 -1.9341,-6.70063 -0.60918,-3.58161 0.51376,-7.30258 0,-10.89908 -0.87728,-6.14101 -2.49225,-12.43166 -3.11404,-18.68414 -0.71049,-7.14454 1.01118,-14.76883 0,-21.88466 -0.43725,-3.27676 -2.64721,-6.13233 -3.11402,-9.39993 -1.30995,-9.16964 0.2227,-19.13793 -1.58533,-28.24459 -1.16718,-5.87881 -2.81059,-11.75224 -3.54814,-17.78924 -0.0159,-0.13078 0.0159,-15.61327 0,-15.7721 -3.49242,-34.91144 -1.58551,-70.93944 -1.58551,-106.15392 0,-12.58787 2.04549,-31.71316 0,-43.59633 -0.31147,-1.80942 -1.53483,-3.3617 -1.95824,-5.14824 -0.68331,-2.88301 0.576,-6.46212 0,-9.34207 -0.63082,-3.15404 -2.33095,-6.20975 -3.11401,-9.34207 -1.15779,-4.63116 -0.65985,-33.167707 -1.55702,-34.53332 -0.42749,-0.650677 -24.16128,-1.557012 -26.72104,-1.557012 -7.77023,0 -17.32314,-1.343917 -24.95971,0 -15.44941,2.718853 -30.16088,9.251635 -45.15913,13.440629 -13.59104,3.795967 -5.15517,0.3765 -15.87955,1.579962 -21.01154,2.357859 -39.54838,4.431279 -60.92862,2.055694 -15.66461,-1.740509 -31.02279,-5.788956 -46.37149,-8.971584 -5.70497,-1.18296 -12.91664,0 -18.68413,0 -17.14561,0 -34.29119,0 -51.4368,0 -7.07773,0 -14.85207,1.179761 -21.79817,0 -1.62116,-0.27535 -3.11402,-1.057807 -4.67104,-1.586712 -3.79301,-0.661964 -7.55298,-1.55435 -11.37909,-1.985891 -2.06293,-0.232677 -4.1811,0.346353 -6.22803,0 -1.15686,-0.195749 -2.00519,-1.297339 -3.14254,-1.585571 -7.07962,-1.794153 -15.36021,-3.834133 -22.70382,-4.69964 -12.85898,-1.515542 -26.94024,0 -39.92275,0 -3.16756,0 -7.72744,0.63433 -10.89909,0 -1.60936,-0.321871 -3.05213,-1.287193 -4.67103,-1.557012 -3.07166,-0.511943 -6.29022,0.619151 -9.34207,0 -1.14966,-0.233238 -2.00491,-1.296975 -3.14206,-1.585093 -2.01243,-0.509886 -4.20805,0.479005 -6.22805,0 -5.63218,-1.335566 -11.03976,-2.461429 -16.68456,-3.492918 -10.9397,-1.99904 -25.75527,0 -37.23058,0 -7.02851,0 -25.529103,-1.643917 -30.460851,0 -4.005755,1.335252 -7.191756,4.443738 -10.949734,6.368982 z"
       id="path1" />
    <path
       style="fill:none;stroke:#f9f9f9;stroke-width:4.99999;stroke-dasharray:none"
       d="m 535.75611,75.504902 c 0.27763,3.628006 0.38965,7.272504 0.83288,10.884021 0.36385,2.964966 1.23672,5.853496 1.58533,8.820296 0.92334,7.857751 -2.22001,24.480181 0,31.140231 0.23209,0.69632 1.3249,0.8607 1.55702,1.55701 0.82061,2.46186 -0.46715,5.23243 0,7.78506 1.1204,6.12253 3.88453,11.59603 4.67103,17.92621 0.70589,5.68144 -0.56131,11.47782 0,17.17536 0.33065,3.35645 1.51091,6.58761 1.90405,9.93731 1.53834,13.10637 0,27.3123 0,40.53937 0,8.79043 1.18549,20.76671 0,29.71532 -0.31639,2.38841 -1.81118,4.51339 -2.16141,6.89708 -1.92891,13.12842 0.83916,27.28416 0,40.5397 -1.18806,18.76708 -4.88952,37.39618 -6.81894,56.05214 -1.05823,10.23204 -1.08958,20.44261 -1.7815,30.72638 -1.50857,22.42166 -1.27034,-1.11533 -5.53497,22.81499 -0.59116,3.31722 0.2913,6.75156 0,10.10843 -0.23017,2.65235 -1.264,5.18756 -1.557,7.83371 -1.75418,15.84248 0,33.00899 0,48.94741 0,17.68925 -1.7572,36.47049 0,54.06768 0.21691,2.17242 1.33784,4.18648 1.57991,6.35625 0.51864,4.64897 -0.62886,9.39808 0,14.03345 5.82329,24.66713 -0.43381,-4.71951 1.98646,14.64259 1.22516,9.80123 1.45738,2.68862 3.48017,11.32652 0.47337,2.02134 -0.40714,4.19235 0,6.22806 0.3219,1.60938 1.32491,3.0463 1.55702,4.67103 0.66424,4.64968 0,9.39377 0,14.09065 0,14.75282 -2.02258,34.26108 0,48.41904 0.2321,1.62475 1.32491,3.04631 1.55702,4.67103 1.08488,7.59418 -1.37297,15.81463 0,23.3552 0.30303,1.66433 1.64926,3.01286 1.98446,4.67103 0.85405,4.22479 -0.54949,8.65569 0,12.93077 0.8899,6.92346 4.96432,13.59781 6.30446,20.29846 0.30536,1.52678 -0.37764,3.1605 0,4.67104 0.17802,0.71207 1.3249,0.86069 1.557,1.55702 1.25142,3.75428 0,9.90142 0,13.90589"
       id="path2" />
    <path
       style="fill:none;stroke:#f9f9f9;stroke-width:4.99999;stroke-dasharray:none"
       d="m 567.78699,73.243082 c 1.36321,15.016816 -3.62704,29.608608 -5.21862,44.336868 -0.71736,6.63851 0.91168,13.62714 0,20.24115 -1.21263,8.79754 -2.93571,17.41435 -4.04931,26.21171 -1.58758,12.54157 0,26.39301 0,39.01924 0,15.13922 -1.79226,31.44488 0,46.49691 0.43481,3.65171 1.70048,7.18117 2.03274,10.84363 0.34824,3.83866 -0.64069,7.76246 0,11.56328 3.80182,22.55419 3.36055,1.16747 5.31879,17.55618 0.54813,4.58767 -0.50761,9.3816 0,13.974 1.01528,9.18578 3.94234,19.82517 7.12988,28.36844 0.93602,2.50867 2.92063,4.59322 3.59053,7.18568 0.55951,2.16533 -0.36311,4.5026 0,6.70939 0.29382,1.78572 1.63248,3.28771 1.93847,5.0714 0.8478,4.94199 1.0886,9.96947 1.55702,14.96171 0.85362,9.09804 0,18.96406 0,28.10235 0,8.21378 0.77041,16.99691 0,25.15833 -0.70893,7.50985 -3.68414,14.90038 -4.74763,22.34496 -0.73938,5.17562 -1.03487,12.90897 -1.58554,18.12099 -0.68837,6.5155 0,13.70219 0,20.24116 0,20.3377 0,40.6754 0,61.0131 0,8.91119 0.8623,18.38881 0,27.2615 -1.02167,10.51256 -2.40811,9.01732 -3.7378,19.67362 -0.69665,5.58277 -1.25124,36.72184 0,42.03931 0.30287,1.28717 1.54705,2.20366 1.91641,3.47334 1.21134,4.16372 -0.65159,9.76241 0,14.0131 0.35292,2.30225 1.69724,4.38878 1.9818,6.70047 0.63834,5.1857 -0.65018,10.4903 0,15.67455 0.42006,3.34912 1.70712,6.5605 2.03124,9.92026 0.81851,8.48453 0,17.04787 0,25.57179 0,1.52779 -1.18444,47.25427 0,48.73294 1.38281,1.72633 5.92944,-0.43727 5.92944,-2.42294"
       id="path3" />
    <path
       style="fill:none;stroke:#f9f9f9;stroke-width:4.99999;stroke-dasharray:none"
       d="m 589.09291,72.700969 c 0.34612,10.889604 -5.42214,20.7133 -7.14704,31.145751 -0.2555,1.54544 0.31047,3.16391 0,4.69926 -2.54402,12.5812 -1.0166,-9.962065 -3.14272,8.29438 -0.31686,2.72099 0.39262,5.50703 0,8.21812 -0.97427,6.72794 -4.5671,13.29008 -5.47195,20.1236 -1.09847,8.29578 1.17523,17.05815 0,25.34202 -0.23392,1.6487 -1.2854,3.10387 -1.55702,4.74678 -2.11053,12.76576 0.20802,37.82754 1.57774,51.47984 1.07659,10.73073 -1.63754,22.1052 0,32.75431 2.00467,13.0367 6.73782,26.6706 12.48441,38.16376 0.60198,1.20398 0.93618,13.04099 1.557,15.49053 0.57338,2.26232 2.40469,4.04254 3.14272,6.25666 0.75197,2.25589 0.72139,5.696 1.55702,7.78504 0.69498,1.73747 2.52227,2.89576 3.11401,4.67104 0.98476,2.95423 -0.47437,6.2644 0,9.34206 1.24765,8.09443 3.54447,16.18703 4.7275,24.35694 1.15729,7.99203 0.71657,16.35892 3.1429,24.17283 0.36235,1.16692 1.59018,1.94146 1.93392,3.11402 1.69609,5.78569 0,14.60658 0,20.61006 0,7.09787 0.77182,14.81852 0,21.84474 -1.00264,9.12754 -3.91834,18.15989 -5.34482,27.20152 -1.70704,10.82011 0,23.2302 0,34.25425 0,4.4961 -1.20967,13.84546 0,18.68414 0.17801,0.71207 1.42624,0.83478 1.55702,1.55702 1.04847,5.78974 -1.0505,12.15064 0,17.94004 1.12639,6.20771 2.43888,12.12948 3.51335,18.35018 0.7067,4.09146 -0.56364,8.3425 0,12.45611 0.31636,2.30891 1.32347,4.46913 1.98522,6.70369 0.51901,3.65231 1.15128,7.29031 1.55702,10.95695 1.77589,16.04907 0.68329,43.48435 -1.55702,59.16645 -1.81216,12.68515 -0.70363,28.39775 1.55702,40.93932 1.07291,5.95228 0,13.022 0,19.06294 0,14.39579 0,28.79158 0,43.1874"
       id="path4" />
    <path
       style="fill:none;stroke:#f9f9f9;stroke-width:4.99999;stroke-dasharray:none"
       d="m 522.25429,102.49194 c -0.347,5.91639 0.57142,11.89387 0,17.79943 -0.81487,8.42135 -2.50412,16.83034 -3.54206,25.19382 -1.0709,8.62923 1.52993,17.92167 0,26.4692 -0.29728,1.66095 -1.6193,3.01657 -1.95082,4.67104 -1.20632,6.02018 0,14.26808 0,20.23915 0,17.84419 0.38007,35.51379 -1.58541,53.1566 -0.73367,6.58543 0,13.66629 0,20.29869 0,21.10938 0.63304,42.22093 -1.55702,63.13876 -1.07307,10.24924 1.29227,20.91989 0,31.14024 -0.92816,7.3406 -1.93395,14.62051 -3.13751,21.84188 -1.54583,9.275 0,20.15893 0,29.58323 0,4.44603 -0.86559,9.66864 0,14.0131 3.32766,16.7015 0.80968,30.80218 1.9418,47.36131 2.40401,35.1622 1.55702,70.53887 1.55702,105.83471 0,33.07313 -1.60472,65.82574 -1.60472,98.94295 0,7.98025 -1.76094,34.1045 0,38.33161 0.15168,0.36412 1.03719,-0.36637 1.18335,0 1.02891,2.57935 -1.59711,7.90247 0,10.07393 1.43316,1.94858 3.00397,9.78358 3.00397,12.65775"
       id="path6" />
    <path
       style="fill:none;stroke:#f9f9f9;stroke-width:4.99999;stroke-dasharray:none"
       d="m 70.232692,87.922557 c 8.409771,5.877975 17.902243,1.826188 26.976673,3.627768 5.751745,1.141915 11.631725,3.784772 17.614555,4.70059 7.69868,1.178473 16.15678,-1.525511 23.78434,0 14.03633,2.807266 29.15122,1.557012 43.59633,1.557012 27.2198,0 53.69078,1.557012 80.96461,1.557012 11.41808,0 22.83617,0 34.25427,0 4.77694,0 10.8785,-0.855771 15.57012,0 1.36638,0.249237 2.50936,1.254571 3.86495,1.557011 7.39712,1.65029 16.00854,-1.83666 23.35519,0 10.77561,2.6939 22.88366,1.55701 34.25426,1.55701 16.60221,0 33.20439,0 49.80659,0 13.33085,0 26.63373,-1.02339 38.98128,3.14273 2.83001,0.95485 5.88695,0.39573 9.37077,1.55701 2.22941,0.74313 5.32911,-0.88937 7.49985,0 0.75592,0.30969 0.79254,1.60461 1.55702,1.89247 2.57641,0.97012 31.18618,0.68209 34.60922,0 5.38716,-1.07346 9.6787,-3.47258 15.08477,-3.47258"
       id="path7" />
    <path
       style="fill:none;stroke:#f9f9f9;stroke-width:4.99999;stroke-dasharray:none"
       d="m 306.23478,185.0463 c -18.43633,-1.20486 -33.40833,3.48894 -45.33429,18.51745 -11.96786,15.08133 -24.43541,28.06878 -24.43541,48.1299 0,3.17968 0.096,12.32412 1.55701,15.62724 0.67269,1.52078 2.32216,2.43523 3.11403,3.8975 3.38806,6.2565 5.80971,17.16786 13.21245,20.51159 3.61097,1.63102 7.12861,0.83492 10.92778,1.58564 11.79616,2.33101 24.02668,1.95049 35.95013,-0.0273 8.86222,-1.47003 17.10968,-7.45823 25.53417,-10.18582 3.74399,-1.21219 9.7159,-1.37372 13.49222,-3.19048 1.85171,-0.89083 10.19836,-10.71531 10.69258,-13.68068 0.34131,-2.04777 -0.50351,-4.21402 0,-6.22805 0.12588,-0.50351 1.32492,0.46421 1.55702,0 2.77039,-5.54079 -2.65499,-32.31022 -4.72872,-38.27508 -0.16711,-0.48067 -9.02848,-7.14597 -9.36098,-7.81286 -1.3525,-2.71268 -2.21726,-6.87944 -4.62182,-9.284 -0.82061,-0.82063 -2.29071,-0.73909 -3.11402,-1.55702 -1.18237,-1.17465 -2.25583,-5.36986 -3.14473,-6.25874 -0.36697,-0.36699 -1.11358,0.26969 -1.55699,0 -11.04461,-6.71721 -1.48762,-11.87427 -19.74043,-11.76929 z"
       id="path8" />
    <path
       style="fill:none;stroke:#f9f9f9;stroke-width:4.99999;stroke-dasharray:none"
       d="m 291.97935,207.62501 c -7.26316,4.1427 -13.31773,6.95605 -15.79812,14.92756 -0.18438,0.59263 -10.33515,16.69984 -10.6426,17.00924 -0.36113,0.36346 -1.17834,-0.36579 -1.53713,0 -1.05799,1.07862 0,9.08081 0,9.98463 0,1.2264 -0.60384,4.66998 0,5.72324 2.67921,4.67331 8.48708,7.20307 13.94374,9.02195 4.9712,1.65708 9.58829,4.53302 14.55372,6.27747 2.10691,0.74018 16.57295,0.93602 17.98863,0 7.42428,-4.90894 18.18438,-12.42153 20.14439,-22.14095 1.09424,-5.42617 -0.45209,-5.29575 -1.55702,-9.71061 -0.82235,-3.28581 -0.60915,-5.71626 -2.81712,-9.00361 -0.0318,-0.0473 -2.87052,0.0433 -2.98318,0 -3.75775,-1.44471 -7.62511,-3.5909 -11.72112,-4.41906 -3.62196,-0.73231 -7.76761,1.39515 -10.87588,-1.55701 -1.22452,-1.16302 -0.42487,-6.49824 -1.55702,-7.98767 -2.18202,-2.87065 -4.76086,-5.41679 -7.14129,-8.12518 z"
       id="path9" />
    <path
       style="fill:none;stroke:#f9f9f9;stroke-width:4.99999;stroke-dasharray:none"
       d="m 275.36005,299.88488 c 1.88531,21.28452 -3.10507,41.15756 -3.10507,61.74518 0,2.95934 -1.48519,12.50887 0,14.72441 0.41756,0.62291 1.46629,0.63476 1.85131,1.27828 1.45108,2.42536 0,22.1025 0,26.42084 0,4.17214 1.20663,22.42447 -0.75596,24.37971 -0.10486,0.10444 -16.73831,0.86712 -18.43365,1.55702 -2.35588,0.0769 -3.14081,2.6171 -4.98094,3.4493 -1.25579,0.56793 -3.32677,-0.59693 -4.56716,0 -0.63146,0.30387 -0.85879,1.23587 -1.52793,1.44401 -2.64661,0.82331 -8.5273,-1.52371 -10.76262,0 -1.82493,1.24397 -3.11402,31.06365 -3.11402,37.49792 0,0.72707 -0.39792,1.57273 0,2.18128 1.49295,2.28322 35.77412,1.55699 42.09777,1.55699 0.95657,0 3.72091,-0.46302 4.52382,0 0.48895,0.28199 0,7.66617 0,7.92144 0,5.40327 5.00964,34.23597 3.05586,37.22079 -1.09437,1.67187 -7.16878,-1.46235 -7.82527,-1.46235 -4.85746,0 -9.77898,-0.28771 -13.45572,0.97295 -1.38862,0.47609 -1.80269,2.45422 -3.11403,3.11401 -2.27509,1.14467 -5.58017,-0.5819 -7.17913,2.57739 -0.2287,0.45188 0.3086,1.11778 0,1.51937 -2.26994,2.95391 -15.55905,2.17725 -17.96513,6.71994 -2.38411,4.50119 1.26879,39.59016 0,47.20291 -0.31834,1.91002 -3.23596,9.12788 -1.55701,11.53684 0.73122,1.04915 7.24324,-0.36108 8.70098,0 8.09936,2.00622 17.25092,4.32614 25.78022,3.11401 4.61147,-0.65535 15.00504,-3.88972 19.80686,-1.55699 0.61738,0.2999 -3.8277,24.70702 -4.64196,28.77772 -0.30157,1.50759 -0.36486,22.29929 0,22.77927 0.13388,0.17614 3.59199,0.009 3.60154,0 0.34184,-0.30945 -0.29342,-1.02758 0,-1.38329 0.24201,-0.29342 0.7607,0 1.14104,0 0.51901,-0.42138 1.22108,-0.68614 1.55702,-1.26413 1.39282,-2.39627 -6.70615,-1.72106 -7.6254,-1.41464 -0.69633,0.23209 -1.03801,1.03801 -1.55702,1.55702 -1.55702,0.519 -3.06168,1.23512 -4.67103,1.55699 -3.09568,0.61915 -6.2464,0.93789 -9.34207,1.55702 -3.96679,0.79335 -7.92293,0.9144 -11.42984,2.66356 -2.13855,1.06667 -4.77962,0 -7.16944,0 -6.39096,0 -13.38129,-1.74077 -15.33529,4.26146 -0.32323,0.9929 0.29177,2.12995 0,3.13256 -1.10043,3.78134 -1.91699,3.11113 -1.91699,6.56873 0,1.70942 -3.19061,5.69248 -1.53782,7.81386 0.0359,0.046 15.86227,1.95395 18.1435,1.95395 7.11194,0 10.91944,-0.31676 16.4467,-3.11402 1.27741,-0.64648 30.2423,1.19253 30.45134,1.29768 0.65572,0.32978 0.90051,1.22875 1.55702,1.55699 3.36074,1.68037 11.59859,0 15.55158,0 4.56747,0 8.05156,-1.55699 12.39575,-1.55699 0.50237,0 1.31789,0.46535 1.50712,0 1.7114,-4.20849 1.55329,-9.04753 3.11401,-13.72973 0.8998,-2.69936 -0.71532,-6.20488 0,-8.96726 0.29314,-1.13189 1.32935,-1.99633 1.55702,-3.1432 1.8985,-9.5636 0,-23.43401 0,-33.51757 0,-17.74227 0.18603,-35.17932 -1.60329,-52.76763 -0.56928,-5.59575 0.88585,-11.5757 0,-17.12711 -0.2794,-1.75101 -1.03801,-3.39103 -1.557,-5.08654 -0.52554,-2.73997 -1.23846,-5.45057 -1.57659,-8.21991 -0.68017,-5.57062 0.98901,-11.62717 0,-17.14881 -0.41196,-2.29997 -1.60034,-4.41169 -2.03798,-6.7069 -2.59199,-13.59405 -2.57374,-28.55629 -7.38696,-41.33921 -1.3295,-3.53089 0.74835,-8.66162 0,-12.34721 -0.23357,-1.15035 -1.35318,-1.9934 -1.58676,-3.14375 -1.30344,-6.41951 1.6069,-13.89944 0,-20.24115 -2.70235,-10.66504 -3.14224,-19.98393 -3.14224,-31.47076 0,-4.35436 1.07391,-11.27443 0,-15.57012 -0.17801,-0.71208 -1.22807,-0.90088 -1.55702,-1.55702 -1.4618,-2.91574 0,-44.89008 0,-51.07633 0,-3.57024 0.0969,-28.17606 0,-28.28248 -1.95152,-2.14318 -1.52204,0.27374 -1.52204,-2.58972"
       id="path10" />
    <text
       xml:space="preserve"
       style="font-style:normal;font-variant:normal;font-weight:normal;font-stretch:normal;font-size:52.9167px;font-family:Monospace;-inkscape-font-specification:'Monospace, Normal';font-variant-ligatures:normal;font-variant-caps:normal;font-variant-numeric:normal;font-variant-east-asian:normal;fill:#ffffff;fill-opacity:1;stroke:#f9f9f9;stroke-width:1;stroke-dasharray:none"
       x="86.919914"
       y="165.83072"
       id="text16"><tspan
         sodipodi:role="line"
         id="tspan16"
         style="font-style:normal;font-variant:normal;font-weight:normal;font-stretch:normal;font-size:52.9167px;font-family:Monospace;-inkscape-font-specification:'Monospace, Normal';font-variant-ligatures:normal;font-variant-caps:normal;font-variant-numeric:normal;font-variant-east-asian:normal;fill:#ffffff;fill-opacity:1;stroke-width:1;stroke-dasharray:none"
         x="86.919914"
         y="165.83072">Safe</tspan></text>
    <text
       xml:space="preserve"
       style="font-style:normal;font-variant:normal;font-weight:normal;font-stretch:normal;font-size:52.9167px;font-family:Monospace;-inkscape-font-specification:'Monospace, Normal';font-variant-ligatures:normal;font-variant-caps:normal;font-variant-numeric:normal;font-variant-east-asian:normal;fill:#ffffff;fill-opacity:1;stroke:#f9f9f9;stroke-width:1;stroke-dasharray:none"
       x="357.50812"
       y="166.88638"
       id="text17"><tspan
         sodipodi:role="line"
         id="tspan17"
         x="357.50812"
         y="166.88638">Docs</tspan><tspan
         sodipodi:role="line"
         id="tspan18"
         x="357.50812"
         y="233.03226"></tspan></text>
  </g>
</svg>
